<svg xmlns="http://www.w3.org/2000/svg" viewBox="0 0 600.5 600.5" width="38.000000pt" height="38.000000pt"><defs><style>.cls-1{fill:#fff;}</style></defs><title>GuideBook(Square)</title><g id="Layer_2" data-name="Layer 2"><path class="cls-1" d="M238.5,220.57c-86.61,18-144.94,34.84-144.94,34.84,31.91-9,79.39-16.54,141.53-25.58Z"/><path class="cls-1" d="M300,219.13c25-2.1,33.76-3.56,51.93-4.38l-6.11-14.92c-15.2,1.75-21,3.47-39.37,6Z"/><path class="cls-1" d="M332.7,360.27c83.9-47.48,206.14-166.8,73.8-166.76-11.87,0-17.86.66-31.88,2.55l8.56,21.76s3.24.53,4.84.92c93.25,24.61-88.86,143.59-88.86,143.59l.08.08-.6.37,143.44,73.75L331.17,361.07C331.69,360.79,332.18,360.57,332.7,360.27Z"/><path class="cls-1" d="M402.45,314.2l55,115.29L412.07,305.83C409.48,307.66,405,312,402.45,314.2Z"/><path class="cls-1" d="M328.55,156.35l60.1,129.07c3.05-3.82,7.55-9.17,10.66-12.63L309.85,33.55h0L108.2,587,328.36,155.13Z"/></g></svg>